# xmcd CD database file
#
# Track frame offsets:
#	150
#	26209
#	55929
#	81780
#	105975
#	132608
#	158275
#	187678
#	211435
#	241780
#	274122
#
# Disc length: 4020 seconds
#
# Revision: 0
# Processed by: cddbd v1.5.2PL0 Copyright (c) Steve Scherf et al.
# Submitted via: CDex 1.51
#
DISCID=880fb20b
DTITLE=Karunesh - Enchantment-Compilation 2
DYEAR=2010
DGENRE=New Age
TTITLE0=Inshallah
TTITLE1=Hidden Places
TTITLE2=Beyond Heaven
TTITLE3=The Inner Temple
TTITLE4=Phase North
TTITLE5=Endless Skies
TTITLE6=Morning Glory
TTITLE7=A Journey To India
TTITLE8=Dreamscape
TTITLE9=Beyond Time
TTITLE10=Haleakala Sunset
EXTD=YEAR: 2010
EXTT0=
EXTT1=
EXTT2=
EXTT3=
EXTT4=
EXTT5=
EXTT6=
EXTT7=
EXTT8=
EXTT9=
EXTT10=
PLAYORDER=
